<?xml version="1.0" standalone="no"?>
<!DOCTYPE svg PUBLIC "-//W3C//DTD SVG 20010904//EN"
 "http://www.w3.org/TR/2001/REC-SVG-20010904/DTD/svg10.dtd">
<svg version="1.0" xmlns="http://www.w3.org/2000/svg"
 width="300.000000pt" height="75.000000pt" viewBox="0 0 300.000000 75.000000"
 preserveAspectRatio="xMidYMid meet">
<metadata>
Created by potrace 1.15, written by Peter Selinger 2001-2017
</metadata>
<g transform="translate(0.000000,75.000000) scale(0.100000,-0.100000)"
fill="#000000" stroke="none">
<path d="M243 446 c-62 -167 -113 -309 -113 -315 0 -7 24 -11 65 -11 51 0 65
-3 65 -15 0 -12 -14 -15 -65 -15 -51 0 -65 3 -65 15 0 8 -8 15 -18 15 -13 0
-22 -12 -30 -39 -16 -50 -15 -61 3 -61 8 0 15 5 15 12 0 9 3 9 12 0 16 -16
105 -16 111 1 4 9 6 9 6 0 1 -10 39 -13 156 -13 l155 0 0 35 c0 24 -5 35 -15
35 -21 0 -19 28 7 95 l21 57 22 -57 c21 -56 21 -59 4 -109 -16 -46 -16 -51 -2
-54 9 -2 19 2 24 10 6 10 9 10 9 1 0 -19 376 -19 384 0 3 6 3 2 0 -11 -4 -17
-1 -22 14 -22 13 0 22 11 30 39 15 50 15 53 -5 50 -10 -1 -60 -1 -110 0 -76 1
-93 4 -93 16 0 8 -9 15 -20 15 -11 0 -20 -7 -20 -15 0 -12 -15 -15 -74 -15
-51 0 -76 -4 -79 -12 -2 -7 -6 -1 -9 15 -5 27 -5 27 53 27 l59 0 0 81 c0 81 0
81 -24 77 -23 -5 -27 2 -55 79 l-30 84 21 56 c19 53 22 55 30 33 5 -14 43
-112 84 -217 l76 -193 75 0 c56 0 74 3 71 13 -3 6 -56 148 -119 315 l-114 302
-84 -2 -84 -3 -17 -50 -16 -49 -19 52 -19 52 -80 0 -81 0 -112 -304z m227 -5
c0 -8 -12 -47 -27 -88 -25 -67 -30 -73 -55 -73 l-28 0 0 -80 0 -80 55 0 c42 0
55 -3 55 -15 0 -12 -15 -15 -75 -15 -58 0 -75 3 -75 14 0 8 -11 16 -23 18 -24
3 -23 6 57 219 l81 215 17 -50 c10 -28 18 -57 18 -65z"/>
</g>
</svg>
